<svg xmlns="http://www.w3.org/2000/svg" version="1.1" xmlns:xlink="http://www.w3.org/1999/xlink" xmlns:svgjs="http://svgjs.dev/svgjs" width="1000" height="1125" viewBox="0 0 1000 1125"><g transform="matrix(1,0,0,1,0,0)"><svg viewBox="0 0 320 360" data-background-color="#ffffff" preserveAspectRatio="xMidYMid meet" height="1125" width="1000" xmlns="http://www.w3.org/2000/svg" xmlns:xlink="http://www.w3.org/1999/xlink"><g id="tight-bounds" transform="matrix(1,0,0,1,0,0)"><svg viewBox="0 0 320 360" height="360" width="320"><g><svg></svg></g><g><svg viewBox="0 0 320 360" height="360" width="320"><g><path xmlns="http://www.w3.org/2000/svg" d="M160 340c88.258 0 160-71.742 160-160 0-88.258-71.742-160-160-160-88.258 0-160 71.742-160 160 0 88.258 71.742 160 160 160zM165.161 329.368v-10.323c72.671-2.684 131.2-61.213 133.884-133.884h10.323c-2.684 78.452-65.755 141.523-144.207 144.207zM165.161 30.632c78.452 2.684 141.523 65.755 144.207 144.207h-10.323c-2.684-72.671-61.213-131.2-133.884-133.884zM289.032 180c0 71.123-57.91 129.032-129.032 129.032-71.123 0-129.032-57.91-129.032-129.032 0-71.123 57.91-129.032 129.032-129.032 71.123 0 129.032 57.91 129.032 129.032zM154.839 30.632v10.323c-72.671 2.684-131.2 61.213-133.884 133.884h-10.323c2.684-78.452 65.755-141.523 144.207-144.207zM20.955 185.161c2.684 72.671 61.213 131.2 133.884 133.884v10.323c-78.452-2.684-141.523-65.755-144.207-144.207z" fill="#ea9937" fill-rule="nonzero" stroke="none" stroke-width="1" stroke-linecap="butt" stroke-linejoin="miter" stroke-miterlimit="10" stroke-dasharray="" stroke-dashoffset="0" font-family="none" font-weight="none" font-size="none" text-anchor="none" style="mix-blend-mode: normal" data-fill-palette-color="tertiary"></path></g><g transform="matrix(1,0,0,1,70.08999999999999,90.08999999999999)"><svg viewBox="0 0 179.82000000000002 179.82000000000002" height="179.82000000000002" width="179.82000000000002"><g><svg viewBox="0 0 179.82000000000002 179.82000000000002" height="179.82000000000002" width="179.82000000000002"><g><svg viewBox="0 0 179.82000000000002 179.82000000000002" height="179.82000000000002" width="179.82000000000002"><g id="textblocktransform"><svg viewBox="0 0 179.82000000000002 179.82000000000002" height="179.82000000000002" width="179.82000000000002" id="textblock"><g><svg viewBox="0 0 179.82000000000002 179.82000000000002" height="179.82000000000002" width="179.82000000000002"><g transform="matrix(1,0,0,1,26.33402930351751,49.71852099498621)"><svg viewBox="0 0 127.151941392965 80.38295801002761" height="80.38295801002761" width="127.151941392965"><g><svg xmlns="http://www.w3.org/2000/svg" xmlns:xlink="http://www.w3.org/1999/xlink" version="1.1" x="0" y="0" viewBox="3.555999755859375 19.711999893188477 96.44400024414062 60.970001220703125" enable-background="new 0 0 100 100" xml:space="preserve" height="80.38295801002761" width="127.151941392965" class="icon-o-0" data-fill-palette-color="accent" id="o-0"><g fill="#ea9937" data-fill-palette-color="accent"><path d="M97.814 79.041c0 0.906-0.737 1.641-1.64 1.641H6.564c-0.907 0-1.64-0.734-1.64-1.641l-1.368-1.526c0-0.907 0.735-1.642 1.641-1.642l93.163 0.274c0.906 0 1.64 0.734 1.64 1.641L97.814 79.041z" fill="#ea9937" data-fill-palette-color="accent"></path><path d="M38.557 76.559l3.466-3.264c0-0.218 0.469-0.392 1.044-0.393l13.355-0.004c0.576 0 1.042 0.175 1.042 0.392l3.425 3.218 38.199-0.291-13.496-12.35H16.485L3.581 76.944l35.033-0.267C38.581 76.64 38.557 76.6 38.557 76.559zM25.042 65.584h52.727l10.298 5.895-72.872 0.348L25.042 65.584z" fill="#ea9937" data-fill-palette-color="accent"></path><path d="M83.955 19.712H18.123c-0.903 0-1.638 0.734-1.638 1.641v42.515h69.108V21.353C85.593 20.446 84.859 19.712 83.955 19.712zM51.393 20.12c0.386 0 0.697 0.312 0.697 0.697 0 0.386-0.312 0.699-0.697 0.699s-0.698-0.313-0.698-0.699C50.695 20.433 51.007 20.12 51.393 20.12zM82.86 61.134H19.218V22.446H82.86V61.134z" fill="#ea9937" data-fill-palette-color="accent"></path></g></svg></g></svg></g><g><path d="M7.544 121.374L10.489 120.46 10.429 120.267C9.849 120.172 9.351 119.966 8.936 119.651 8.512 119.331 8.203 118.859 8.01 118.234V118.234C7.876 117.803 7.824 117.385 7.854 116.981 7.883 116.577 8 116.202 8.203 115.857 8.407 115.511 8.695 115.203 9.07 114.932 9.444 114.66 9.908 114.439 10.462 114.267V114.267L15.105 112.827 15.485 114.053 10.996 115.445C10.186 115.697 9.642 116.049 9.366 116.501 9.097 116.952 9.07 117.524 9.285 118.219V118.219C9.515 118.96 9.947 119.464 10.581 119.733 11.221 120 11.966 120.002 12.815 119.738V119.738L16.86 118.484 17.24 119.71 7.548 122.716C7.188 122.828 6.86 122.806 6.565 122.651 6.263 122.498 6.056 122.241 5.945 121.88V121.88L4.567 117.44 5.697 117.089 6.939 121.096C7.027 121.379 7.229 121.471 7.544 121.374ZM18.462 131.629L18.28 131.716C17.672 132.007 17.083 132.165 16.513 132.191 15.949 132.215 15.424 132.133 14.939 131.946 14.463 131.763 14.033 131.487 13.648 131.119 13.262 130.75 12.955 130.326 12.725 129.846V129.846C12.487 129.347 12.347 128.835 12.305 128.31 12.263 127.785 12.32 127.28 12.477 126.794 12.636 126.3 12.902 125.84 13.274 125.416 13.652 124.988 14.145 124.629 14.753 124.339V124.339L14.936 124.252C15.538 123.964 16.121 123.809 16.685 123.785 17.255 123.759 17.782 123.84 18.267 124.026 18.761 124.216 19.199 124.492 19.582 124.854 19.958 125.219 20.262 125.645 20.495 126.132V126.132C20.724 126.612 20.863 127.113 20.911 127.635 20.956 128.167 20.896 128.681 20.73 129.178 20.571 129.673 20.302 130.134 19.924 130.561 19.551 130.985 19.064 131.341 18.462 131.629ZM13.829 129.318V129.318C13.997 129.671 14.215 129.97 14.482 130.216 14.746 130.456 15.052 130.634 15.399 130.752 15.744 130.864 16.114 130.903 16.509 130.871 16.899 130.842 17.3 130.728 17.713 130.531V130.531L17.896 130.444C18.291 130.255 18.622 130.018 18.889 129.733 19.163 129.446 19.364 129.133 19.494 128.795 19.62 128.45 19.678 128.094 19.666 127.726 19.652 127.352 19.563 126.995 19.401 126.655V126.655C19.235 126.308 19.011 126.012 18.729 125.766 18.45 125.526 18.137 125.347 17.789 125.229 17.445 125.118 17.075 125.078 16.679 125.11 16.29 125.139 15.898 125.248 15.502 125.437V125.437L15.32 125.524C14.907 125.722 14.566 125.963 14.299 126.248 14.026 126.535 13.824 126.848 13.695 127.186 13.568 127.531 13.515 127.881 13.536 128.237 13.56 128.599 13.657 128.959 13.829 129.318ZM23.375 139.767L26.92 137.45 27.622 138.524 20.803 142.982 20.101 141.907 21.336 141.1 21.225 140.93C20.642 140.998 20.107 140.937 19.621 140.748 19.129 140.562 18.702 140.193 18.341 139.64V139.64C18.094 139.262 17.929 138.875 17.847 138.478 17.765 138.081 17.774 137.688 17.875 137.3 17.979 136.918 18.174 136.545 18.459 136.182 18.745 135.818 19.13 135.477 19.615 135.16V135.16L23.685 132.5 24.387 133.575 20.453 136.146C19.742 136.611 19.316 137.099 19.175 137.609 19.04 138.117 19.17 138.672 19.564 139.275V139.275C19.988 139.924 20.542 140.291 21.225 140.375 21.914 140.456 22.631 140.254 23.375 139.767ZM36.944 159.473L37.759 158.521 37.606 158.389C37.342 158.501 37.074 158.56 36.802 158.566 36.526 158.578 36.259 158.553 36.001 158.492 35.743 158.431 35.494 158.338 35.255 158.213 35.016 158.088 34.804 157.947 34.62 157.789V157.789C34.205 157.434 33.88 157.032 33.645 156.582 33.409 156.131 33.27 155.657 33.226 155.159 33.183 154.66 33.253 154.148 33.437 153.623 33.621 153.097 33.93 152.581 34.364 152.074V152.074L34.535 151.875C34.964 151.373 35.427 150.993 35.923 150.735 36.419 150.476 36.916 150.326 37.415 150.282 37.913 150.239 38.403 150.299 38.884 150.462 39.361 150.631 39.799 150.886 40.198 151.228V151.228C40.623 151.592 40.94 152.023 41.151 152.523 41.358 153.028 41.394 153.561 41.261 154.121V154.121L41.414 154.252 44.425 150.736 45.4 151.57 37.919 160.308ZM35.515 156.946V156.946C35.807 157.195 36.124 157.374 36.467 157.481 36.805 157.584 37.154 157.617 37.514 157.579 37.874 157.542 38.227 157.431 38.571 157.247 38.919 157.057 39.238 156.793 39.528 156.456V156.456L39.659 156.302C39.944 155.969 40.151 155.619 40.28 155.25 40.414 154.877 40.471 154.509 40.453 154.147 40.434 153.786 40.348 153.441 40.193 153.114 40.034 152.782 39.813 152.496 39.532 152.254V152.254C39.24 152.005 38.92 151.824 38.572 151.712 38.229 151.605 37.878 151.57 37.518 151.608 37.162 151.649 36.813 151.763 36.469 151.947 36.13 152.136 35.818 152.396 35.533 152.729V152.729L35.362 152.929C35.064 153.277 34.848 153.633 34.713 153.997 34.589 154.36 34.533 154.721 34.546 155.078 34.569 155.435 34.662 155.772 34.825 156.089 34.983 156.401 35.213 156.687 35.515 156.946ZM44.873 156.647L45.508 155.649 48.006 157.24 47.425 158.152 47.587 158.256C48.006 157.987 48.433 157.868 48.87 157.898 49.309 157.922 49.737 158.067 50.152 158.331V158.331C50.845 158.772 51.262 159.353 51.402 160.074 51.533 160.796 51.336 161.602 50.811 162.489V162.489L49.574 161.929C49.979 161.293 50.117 160.737 49.987 160.263 49.867 159.787 49.585 159.408 49.142 159.126V159.126C48.852 158.941 48.569 158.841 48.292 158.824 48.013 158.798 47.743 158.838 47.484 158.945 47.219 159.047 46.972 159.21 46.743 159.431 46.517 159.647 46.309 159.906 46.117 160.207V160.207L44.265 163.114 46.005 164.222 45.369 165.219 40.962 162.412 41.597 161.415 43.183 162.425 46.288 157.548ZM60.161 168.589L54.192 165.843C53.885 166.591 53.842 167.288 54.065 167.932 54.288 168.576 54.782 169.074 55.547 169.426V169.426C55.896 169.586 56.218 169.686 56.511 169.725 56.805 169.763 57.078 169.759 57.33 169.712 57.578 169.655 57.8 169.561 57.994 169.428 58.195 169.298 58.377 169.144 58.54 168.967V168.967L59.516 169.772C58.992 170.362 58.349 170.744 57.586 170.92 56.823 171.095 55.964 170.963 55.009 170.524V170.524C54.482 170.282 54.038 169.966 53.675 169.577 53.319 169.191 53.061 168.753 52.9 168.263 52.737 167.78 52.673 167.265 52.71 166.718 52.743 166.162 52.889 165.603 53.148 165.04V165.04L53.313 164.682C53.552 164.161 53.867 163.72 54.256 163.358 54.645 162.995 55.08 162.728 55.56 162.555 56.039 162.383 56.542 162.306 57.067 162.326 57.592 162.345 58.115 162.474 58.636 162.713V162.713C59.242 162.992 59.717 163.345 60.063 163.771 60.399 164.2 60.632 164.645 60.762 165.105 60.9 165.561 60.947 166.017 60.901 166.47 60.852 166.915 60.752 167.303 60.6 167.634V167.634ZM58.129 163.815V163.815C57.798 163.663 57.468 163.574 57.139 163.549 56.809 163.523 56.494 163.556 56.192 163.647 55.89 163.739 55.613 163.882 55.36 164.077 55.11 164.266 54.895 164.501 54.714 164.781V164.781L59.498 166.982C59.62 166.652 59.674 166.325 59.66 166 59.644 165.681 59.573 165.384 59.446 165.111 59.314 164.835 59.133 164.582 58.906 164.351 58.675 164.126 58.416 163.948 58.129 163.815ZM68.903 173.779L68.931 173.682 68.737 173.625C68.329 174.08 67.865 174.369 67.344 174.489 66.824 174.61 66.318 174.598 65.827 174.453V174.453C65.31 174.301 64.857 174.073 64.469 173.769 64.075 173.463 63.763 173.09 63.534 172.65 63.306 172.21 63.17 171.717 63.127 171.171 63.078 170.622 63.15 170.022 63.342 169.369V169.369L63.416 169.117C63.605 168.477 63.87 167.937 64.21 167.496 64.542 167.06 64.924 166.72 65.354 166.474 65.785 166.229 66.25 166.081 66.749 166.032 67.24 165.987 67.731 166.036 68.223 166.181V166.181C68.759 166.339 69.213 166.599 69.584 166.962 69.946 167.328 70.181 167.795 70.289 168.36V168.36L70.482 168.417 70.842 167.196 72.074 167.558 70.245 173.764C70.152 174.08 70.244 174.28 70.522 174.361V174.361L70.92 174.479 70.585 175.613 69.752 175.367C69.396 175.262 69.14 175.06 68.982 174.761 68.824 174.462 68.798 174.134 68.903 173.779ZM66.299 173.317V173.317C66.667 173.426 67.023 173.457 67.367 173.411 67.717 173.366 68.043 173.252 68.343 173.066 68.637 172.879 68.897 172.629 69.123 172.316 69.357 171.998 69.537 171.626 69.662 171.2V171.2L69.72 171.006C69.843 170.586 69.892 170.182 69.866 169.795 69.848 169.403 69.763 169.048 69.611 168.729 69.459 168.411 69.249 168.134 68.98 167.901 68.712 167.667 68.4 167.498 68.044 167.393V167.393C67.676 167.285 67.32 167.254 66.976 167.3 66.626 167.344 66.301 167.459 66 167.644 65.708 167.825 65.446 168.071 65.214 168.382 64.98 168.699 64.801 169.068 64.677 169.488V169.488L64.603 169.74C64.34 170.632 64.371 171.397 64.696 172.034 65.015 172.668 65.549 173.096 66.299 173.317ZM83.098 171.256L82.168 177.464 80.898 177.274 81.765 171.486C81.822 171.106 81.782 170.783 81.645 170.518 81.509 170.245 81.25 170.08 80.871 170.023V170.023C80.517 169.97 80.208 170.06 79.941 170.293 79.681 170.527 79.51 170.92 79.427 171.473V171.473L78.609 176.931 77.34 176.741 78.216 170.893C78.27 170.533 78.218 170.222 78.059 169.96 77.901 169.698 77.659 169.542 77.332 169.493V169.493C76.939 169.434 76.618 169.529 76.369 169.778 76.113 170.033 75.951 170.387 75.883 170.84V170.84L75.051 176.398 73.781 176.208 74.988 168.151 76.258 168.341 76.127 169.211 76.317 169.239C76.521 168.881 76.769 168.636 77.061 168.502 77.362 168.363 77.695 168.321 78.061 168.376V168.376C78.455 168.435 78.762 168.587 78.985 168.831 79.207 169.076 79.344 169.365 79.396 169.7V169.7L79.586 169.729C80.062 169.051 80.704 168.772 81.51 168.893V168.893C82.117 168.984 82.554 169.247 82.823 169.682 83.099 170.112 83.191 170.637 83.098 171.256ZM88.61 176.882V176.882C88.625 176.565 88.749 176.298 88.982 176.08 89.215 175.868 89.493 175.77 89.816 175.785V175.785C90.132 175.8 90.396 175.924 90.608 176.157 90.819 176.396 90.917 176.674 90.902 176.99V176.99L90.826 178.596C90.808 178.973 90.676 179.273 90.429 179.498 90.182 179.729 89.873 179.836 89.503 179.818V179.818L88.665 179.778 88.707 178.89 89.485 178.927C89.781 178.941 89.937 178.786 89.952 178.463V178.463L89.972 178.049C89.883 178.079 89.788 178.091 89.687 178.086V178.086C89.377 178.072 89.117 177.945 88.905 177.705 88.694 177.473 88.595 177.198 88.61 176.882ZM115.803 165.218L116.778 173.407 114.501 174.049 111.497 167.041 111.312 167.093 112.41 174.639 110.133 175.28 106.687 167.787 107.952 167.431 111.051 174.402 111.236 174.35 110.102 166.825 112.388 166.18 115.351 173.19 115.536 173.138 114.538 165.574ZM126.792 165.421L120.752 168.005C121.101 168.736 121.589 169.234 122.216 169.501 122.843 169.767 123.544 169.735 124.318 169.404V169.404C124.671 169.253 124.961 169.081 125.187 168.89 125.412 168.698 125.592 168.492 125.726 168.274 125.851 168.052 125.929 167.824 125.961 167.591 125.999 167.354 126.007 167.116 125.986 166.877V166.877L127.237 166.693C127.323 167.477 127.176 168.211 126.794 168.895 126.412 169.578 125.738 170.127 124.771 170.54V170.54C124.239 170.768 123.706 170.886 123.175 170.894 122.649 170.899 122.151 170.796 121.68 170.587 121.212 170.384 120.788 170.086 120.407 169.692 120.017 169.294 119.7 168.811 119.456 168.241V168.241L119.301 167.878C119.076 167.352 118.959 166.823 118.952 166.291 118.944 165.759 119.037 165.257 119.231 164.786 119.426 164.314 119.706 163.89 120.072 163.514 120.439 163.137 120.886 162.836 121.412 162.611V162.611C122.025 162.348 122.606 162.232 123.154 162.261 123.698 162.3 124.184 162.425 124.612 162.638 125.044 162.842 125.412 163.113 125.718 163.451 126.015 163.786 126.236 164.12 126.379 164.455V164.455ZM121.889 163.726V163.726C121.555 163.869 121.267 164.054 121.027 164.281 120.788 164.509 120.6 164.765 120.466 165.049 120.331 165.334 120.251 165.636 120.226 165.954 120.198 166.267 120.228 166.584 120.314 166.906V166.906L125.156 164.835C124.993 164.523 124.787 164.264 124.537 164.055 124.289 163.854 124.022 163.708 123.734 163.618 123.44 163.531 123.132 163.495 122.808 163.509 122.487 163.529 122.18 163.601 121.889 163.726ZM142.045 158.447L142.836 159.419 141.841 160.229 134.576 151.311 135.571 150.501 138.495 154.09 138.652 153.962C138.561 153.402 138.63 152.863 138.86 152.345 139.085 151.832 139.427 151.388 139.887 151.013V151.013C140.279 150.694 140.707 150.463 141.172 150.318 141.636 150.184 142.112 150.144 142.6 150.199 143.093 150.249 143.582 150.411 144.066 150.686 144.546 150.955 144.995 151.346 145.412 151.858V151.858L145.616 152.109C146.037 152.626 146.336 153.147 146.512 153.673 146.679 154.198 146.74 154.705 146.695 155.193 146.65 155.682 146.507 156.142 146.267 156.572 146.021 157.007 145.7 157.386 145.303 157.709V157.709C145.099 157.875 144.871 158.022 144.618 158.149 144.371 158.273 144.11 158.363 143.836 158.422 143.562 158.48 143.291 158.505 143.024 158.497 142.747 158.488 142.473 158.428 142.201 158.319V158.319ZM144.326 156.927V156.927C144.629 156.68 144.866 156.4 145.037 156.087 145.208 155.774 145.309 155.44 145.341 155.084 145.372 154.737 145.324 154.38 145.199 154.013 145.083 153.647 144.883 153.289 144.597 152.939V152.939L144.393 152.688C144.112 152.343 143.806 152.08 143.475 151.897 143.145 151.705 142.805 151.587 142.456 151.542 142.096 151.495 141.741 151.524 141.391 151.627 141.045 151.726 140.724 151.896 140.426 152.139V152.139C140.128 152.381 139.898 152.664 139.736 152.988 139.573 153.311 139.481 153.652 139.459 154.009 139.432 154.37 139.48 154.739 139.605 155.116 139.725 155.487 139.923 155.843 140.2 156.182V156.182L140.327 156.339C140.608 156.684 140.921 156.955 141.264 157.153 141.604 157.346 141.953 157.465 142.313 157.512 142.667 157.562 143.016 157.538 143.362 157.439 143.707 157.34 144.029 157.17 144.326 156.927ZM152.136 145.247L149.046 142.35 149.924 141.414 155.868 146.985 154.99 147.922 153.913 146.913 153.775 147.06C153.979 147.611 154.046 148.146 153.977 148.663 153.913 149.184 153.655 149.686 153.203 150.168V150.168C152.894 150.497 152.557 150.749 152.191 150.923 151.825 151.097 151.441 151.181 151.04 151.175 150.644 151.164 150.236 151.062 149.815 150.871 149.394 150.68 148.972 150.386 148.549 149.989V149.989L145.002 146.664 145.88 145.728 149.309 148.942C149.929 149.523 150.503 149.821 151.033 149.838 151.558 149.849 152.067 149.592 152.56 149.066V149.066C153.09 148.501 153.315 147.876 153.236 147.192 153.152 146.504 152.785 145.855 152.136 145.247ZM151.605 134.932V134.932C151.346 134.749 151.188 134.501 151.129 134.187 151.076 133.877 151.143 133.59 151.33 133.326V133.326C151.513 133.067 151.76 132.912 152.07 132.859 152.385 132.81 152.672 132.877 152.931 133.06V133.06C153.189 133.243 153.345 133.489 153.398 133.799 153.456 134.113 153.394 134.399 153.211 134.658V134.658C153.024 134.922 152.773 135.078 152.457 135.127 152.147 135.18 151.863 135.115 151.605 134.932ZM158.891 142.954L157.926 142.271 159.579 139.937 154.861 136.595 153.377 138.69 152.412 138.006 154.638 134.864 160.321 138.889 161.858 136.72 162.823 137.404ZM165.213 133.06L164.162 132.519 165.516 129.885 157.389 125.708 156.081 128.252 155.03 127.711 156.924 124.026 166.102 128.743 167.456 126.109 168.508 126.65ZM172.245 116.217L171.059 115.81 170.994 116.001C171.195 116.206 171.348 116.433 171.455 116.683 171.567 116.936 171.643 117.193 171.681 117.455 171.719 117.718 171.725 117.983 171.697 118.251 171.669 118.52 171.615 118.769 171.537 118.998V118.998C171.36 119.514 171.105 119.965 170.774 120.35 170.442 120.735 170.053 121.039 169.605 121.263 169.158 121.488 168.656 121.611 168.1 121.634 167.543 121.657 166.95 121.56 166.319 121.343V121.343L166.07 121.258C165.446 121.044 164.922 120.754 164.499 120.388 164.076 120.022 163.752 119.615 163.528 119.168 163.304 118.72 163.179 118.243 163.154 117.736 163.135 117.23 163.211 116.729 163.381 116.232V116.232C163.563 115.703 163.847 115.249 164.234 114.868 164.627 114.49 165.109 114.26 165.678 114.178V114.178L165.744 113.987 161.365 112.484 161.782 111.27 172.662 115.003ZM170.422 118.477V118.477C170.547 118.114 170.596 117.753 170.569 117.395 170.54 117.043 170.442 116.706 170.275 116.385 170.107 116.064 169.874 115.777 169.576 115.526 169.271 115.271 168.908 115.072 168.488 114.928V114.928L168.296 114.862C167.882 114.72 167.48 114.657 167.09 114.673 166.693 114.686 166.33 114.768 166.001 114.919 165.671 115.07 165.383 115.277 165.136 115.541 164.886 115.812 164.701 116.122 164.581 116.473V116.473C164.456 116.836 164.406 117.2 164.431 117.565 164.457 117.923 164.555 118.263 164.722 118.584 164.892 118.898 165.126 119.182 165.424 119.434 165.725 119.679 166.082 119.873 166.497 120.015V120.015L166.745 120.1C167.179 120.249 167.589 120.319 167.977 120.309 168.361 120.291 168.716 120.21 169.044 120.066 169.367 119.913 169.646 119.703 169.88 119.434 170.113 119.172 170.293 118.853 170.422 118.477Z" fill="#ea9937" data-fill-palette-color="secondary"></path><path d="M5.179 68.286V68.286C5.053 68.24 4.865 68.164 4.617 68.059 4.376 67.951 4.212 67.88 4.123 67.848V67.848C4.085 67.834 3.955 67.797 3.733 67.738 3.507 67.67 3.315 67.607 3.156 67.549V67.549C2.409 67.278 2.061 67.072 2.112 66.933V66.933C2.132 66.876 2.16 66.828 2.196 66.791V66.791C2.73 65.322 3.502 63.143 4.51 60.255 5.527 57.362 6.296 55.2 6.817 53.769V53.769C6.948 53.408 7.06 53.191 7.151 53.117 7.249 53.045 7.39 53.042 7.574 53.109V53.109L7.868 53.216C8.235 53.35 8.775 53.542 9.486 53.794 10.204 54.048 10.75 54.243 11.123 54.379V54.379C11.484 54.511 11.629 54.675 11.558 54.871V54.871C11.415 55.264 11.195 55.847 10.899 56.621 10.603 57.395 10.383 57.979 10.24 58.371V58.371L21.524 62.479C21.715 62.605 21.782 62.766 21.725 62.96V62.96C21.635 63.207 21.502 63.564 21.325 64.03 21.148 64.497 21.015 64.853 20.925 65.1V65.1C20.92 65.113 20.922 65.128 20.93 65.145V65.145C20.817 65.455 20.656 65.888 20.447 66.443 20.238 66.998 20.083 67.411 19.984 67.684V67.684L19.753 68.32C19.715 68.464 19.647 68.669 19.55 68.935V68.935L18.892 69.179C17.821 68.789 16.249 68.174 14.175 67.333 12.098 66.498 10.524 65.886 9.454 65.496V65.496C9.403 65.478 9.323 65.452 9.213 65.419 9.097 65.384 9.004 65.354 8.934 65.329 8.865 65.303 8.775 65.274 8.665 65.241 8.559 65.217 8.467 65.205 8.388 65.205 8.315 65.207 8.238 65.211 8.157 65.218 8.074 65.23 8.006 65.259 7.953 65.305 7.899 65.357 7.856 65.424 7.826 65.506V65.506L6.73 68.517C6.608 68.695 6.091 68.618 5.179 68.286ZM23.357 57.121V57.121L22.994 56.901C21.905 56.24 20.299 55.25 18.176 53.929 16.062 52.607 14.461 51.615 13.372 50.955V50.955L9.406 48.547 16.171 37.401 19.317 39.31C19.334 39.32 19.38 39.348 19.455 39.394 19.536 39.443 19.587 39.474 19.61 39.488 19.634 39.502 19.676 39.536 19.738 39.589 19.804 39.637 19.845 39.674 19.861 39.699 19.879 39.734 19.903 39.78 19.931 39.837 19.96 39.893 19.97 39.947 19.963 39.998 19.965 40.047 19.954 40.111 19.929 40.19 19.902 40.261 19.866 40.333 19.821 40.408V40.408L19.658 40.676C18.655 42.329 17.715 43.82 16.838 45.148V45.148C16.934 45.222 17.08 45.339 17.276 45.497 17.472 45.655 17.648 45.793 17.804 45.912 17.955 46.027 18.108 46.132 18.264 46.226V46.226L21.033 41.664C21.148 41.474 21.248 41.361 21.333 41.326 21.423 41.294 21.526 41.313 21.641 41.383V41.383C21.676 41.404 21.726 41.438 21.791 41.486 21.857 41.534 21.907 41.568 21.942 41.589V41.589C22.247 41.774 22.704 42.04 23.314 42.386 23.927 42.727 24.386 42.99 24.692 43.175V43.175C24.81 43.279 24.845 43.371 24.796 43.451V43.451C24.771 43.492 24.738 43.515 24.695 43.52V43.52C23.575 45.599 22.72 47.126 22.129 48.099V48.099L21.977 48.35 23.35 49.184C23.697 48.613 24.171 47.774 24.773 46.665 25.377 45.566 25.843 44.745 26.172 44.204V44.204C26.427 43.783 26.663 43.596 26.88 43.641V43.641L27.606 44.081C27.911 44.266 28.367 44.535 28.973 44.887 29.579 45.239 30.038 45.51 30.349 45.699V45.699C30.666 45.891 30.747 46.114 30.593 46.367V46.367C30.391 46.701 30.078 47.209 29.656 47.891 29.231 48.579 28.91 49.101 28.693 49.459V49.459C28.134 50.38 27.358 51.711 26.366 53.449 25.373 55.188 24.648 56.442 24.188 57.212V57.212L23.723 57.296C23.531 57.211 23.409 57.153 23.357 57.121ZM38.749 28.938V28.938C39.462 29.81 39.968 30.71 40.267 31.64 40.562 32.574 40.652 33.493 40.536 34.395 40.42 35.288 40.14 36.161 39.695 37.016 39.25 37.871 38.647 38.69 37.887 39.473V39.473C37.182 40.198 36.459 40.782 35.718 41.227 34.981 41.676 34.278 41.979 33.608 42.137 32.948 42.294 32.277 42.347 31.595 42.295 30.908 42.247 30.272 42.123 29.688 41.922 29.113 41.721 28.532 41.448 27.946 41.104 27.36 40.76 26.842 40.407 26.394 40.047 25.941 39.692 25.492 39.298 25.047 38.866V38.866L24.337 38.176C23.61 37.367 23.088 36.502 22.769 35.582 22.446 34.667 22.307 33.8 22.353 32.979 22.403 32.164 22.577 31.346 22.875 30.527 23.182 29.708 23.548 28.978 23.972 28.338 24.401 27.703 24.877 27.117 25.398 26.581V26.581C26.233 25.72 27.077 25.06 27.928 24.6 28.774 24.135 29.588 23.877 30.368 23.828 31.149 23.769 31.896 23.861 32.61 24.103 33.323 24.335 34.01 24.711 34.67 25.231V25.231L35.439 25.977C35.613 26.146 35.129 26.818 33.989 27.993V27.993C33.716 28.273 33.333 28.657 32.84 29.146 32.347 29.625 32.025 29.942 31.875 30.096V30.096C31.847 30.125 31.809 30.169 31.762 30.227 31.72 30.289 31.688 30.332 31.664 30.357V30.357C31.528 30.497 31.367 30.547 31.18 30.507 30.994 30.466 30.807 30.379 30.619 30.243 30.426 30.103 30.231 29.97 30.034 29.844 29.837 29.718 29.626 29.655 29.402 29.653 29.178 29.652 28.972 29.748 28.785 29.941 28.597 30.134 28.464 30.334 28.386 30.54 28.308 30.746 28.299 30.958 28.359 31.177 28.41 31.395 28.478 31.601 28.561 31.796 28.65 31.985 28.794 32.2 28.992 32.44 29.191 32.68 29.361 32.878 29.501 33.033 29.647 33.193 29.843 33.397 30.089 33.646 30.341 33.9 30.522 34.085 30.633 34.203V34.203C30.701 34.269 30.815 34.388 30.975 34.562 31.139 34.741 31.275 34.882 31.381 34.985V34.985C32.715 36.281 33.742 36.593 34.461 35.92V35.92C34.649 35.727 34.734 35.504 34.716 35.251 34.698 34.99 34.623 34.752 34.491 34.54 34.369 34.327 34.242 34.1 34.11 33.859 33.973 33.613 33.903 33.424 33.901 33.29V33.29L38.148 28.919C38.336 28.754 38.536 28.76 38.748 28.938ZM48.308 30.137L47.188 30.842C47.011 30.953 46.807 31.085 46.577 31.238 46.35 31.397 46.176 31.518 46.054 31.603 45.932 31.687 45.787 31.779 45.618 31.877 45.451 31.966 45.317 32.019 45.216 32.035 45.108 32.055 44.988 32.059 44.853 32.048 44.716 32.031 44.589 31.976 44.474 31.881 44.358 31.786 44.231 31.659 44.091 31.501 43.951 31.342 43.804 31.14 43.65 30.894V30.894C42.792 29.531 41.646 27.653 40.212 25.26 38.771 22.87 37.703 21.122 37.007 20.015V20.015C36.149 18.652 35.768 17.889 35.864 17.725V17.725L39.389 15.507C40.016 15.112 40.502 14.854 40.848 14.732 41.202 14.613 41.476 14.592 41.668 14.67 41.864 14.753 42.056 14.944 42.242 15.24V15.24C42.3 15.331 42.399 15.508 42.539 15.77 42.69 16.033 42.818 16.251 42.926 16.422V16.422L43.201 16.858C43.33 17.064 43.513 17.374 43.751 17.79 43.985 18.2 44.167 18.507 44.296 18.713V18.713L44.414 18.901C44.451 18.934 44.489 18.981 44.528 19.044V19.044L44.905 18.807C45.013 18.739 45.18 18.638 45.406 18.504 45.632 18.369 45.797 18.27 45.899 18.205V18.205C46.19 18.022 46.394 17.866 46.512 17.736V17.736L44.03 13.793C43.833 13.479 43.705 13.245 43.648 13.09 43.596 12.931 43.588 12.817 43.623 12.747 43.659 12.677 43.75 12.595 43.899 12.502V12.502C43.984 12.448 44.12 12.367 44.306 12.257 44.492 12.148 44.625 12.069 44.705 12.018V12.018L45.39 11.551C45.853 11.236 46.272 10.96 46.649 10.723V10.723C48.366 9.643 49.342 9.291 49.579 9.668V9.668C49.644 9.77 49.738 9.914 49.862 10.099 49.986 10.283 50.081 10.427 50.145 10.53V10.53C50.285 10.752 50.485 11.076 50.745 11.502 51.005 11.927 51.205 12.251 51.345 12.474V12.474C51.758 13.13 52.386 14.103 53.231 15.395 54.066 16.684 54.69 17.657 55.103 18.313V18.313C55.139 18.37 55.181 18.443 55.229 18.532 55.277 18.621 55.31 18.68 55.328 18.709V18.709L55.614 19.162C55.868 19.567 56.064 19.866 56.201 20.058V20.058L56.331 20.264C56.337 20.299 56.357 20.343 56.389 20.394V20.394C56.601 20.731 56.926 21.235 57.364 21.906 57.806 22.583 58.133 23.09 58.345 23.427V23.427C58.439 23.678 57.902 24.171 56.733 24.907V24.907L52.789 27.389 52.259 27.173 51.866 26.548C51.601 26.126 51.209 25.497 50.69 24.661 50.176 23.83 49.785 23.204 49.52 22.782V22.782C49.43 22.639 49.35 22.55 49.28 22.515 49.214 22.485 49.126 22.504 49.018 22.572V22.572L48.676 22.788C48.248 23.057 47.873 23.328 47.552 23.602V23.602C47.882 24.127 48.372 24.918 49.021 25.974 49.67 27.031 50.163 27.827 50.5 28.363V28.363C50.539 28.602 49.808 29.193 48.308 30.137ZM59.34 18.827L58.961 18.968 57.861 16.013C57.596 15.299 57.573 14.901 57.794 14.819V14.819C60.44 13.834 62.439 13.079 63.789 12.555V12.555C64.124 12.43 64.38 12.346 64.558 12.301V12.301L65.268 12.037C65.476 11.995 65.747 12.426 66.084 13.329V13.329L66.919 15.574C66.988 15.836 66.937 15.999 66.767 16.062V16.062C65.921 16.377 64.686 16.876 63.064 17.56 61.442 18.243 60.226 18.735 59.418 19.035V19.035ZM70.786 18.756V18.756L70.708 18.338C70.477 17.086 70.146 15.228 69.718 12.765 69.297 10.308 68.97 8.453 68.739 7.2V7.2L67.894 2.639 80.715 0.265 81.385 3.882C81.388 3.902 81.398 3.955 81.414 4.041 81.431 4.134 81.442 4.194 81.447 4.22 81.452 4.247 81.455 4.301 81.457 4.383 81.465 4.464 81.465 4.518 81.456 4.547 81.443 4.584 81.424 4.632 81.401 4.691 81.378 4.75 81.345 4.794 81.302 4.823 81.267 4.857 81.212 4.891 81.136 4.925 81.065 4.952 80.987 4.974 80.901 4.989V4.989L80.593 5.047C78.691 5.399 76.953 5.69 75.378 5.92V5.92C75.387 6.041 75.398 6.228 75.41 6.479 75.422 6.73 75.436 6.954 75.452 7.15 75.466 7.339 75.49 7.523 75.523 7.702V7.702L80.771 6.73C80.99 6.69 81.14 6.689 81.223 6.729 81.307 6.775 81.361 6.864 81.386 6.997V6.997C81.393 7.036 81.401 7.097 81.409 7.177 81.417 7.258 81.425 7.318 81.432 7.358V7.358C81.497 7.709 81.603 8.228 81.751 8.913 81.905 9.597 82.014 10.115 82.079 10.466V10.466C82.081 10.623 82.036 10.711 81.943 10.728V10.728C81.897 10.736 81.857 10.727 81.824 10.698V10.698C79.527 11.247 77.819 11.625 76.699 11.832V11.832L76.411 11.886 76.704 13.466C77.36 13.344 78.302 13.139 79.53 12.85 80.752 12.569 81.675 12.371 82.298 12.255V12.255C82.781 12.166 83.079 12.217 83.19 12.409V12.409L83.344 13.244C83.409 13.595 83.512 14.114 83.653 14.8 83.794 15.487 83.897 16.009 83.964 16.367V16.367C84.031 16.731 83.919 16.941 83.628 16.995V16.995C83.243 17.066 82.656 17.171 81.867 17.31 81.07 17.451 80.467 17.559 80.056 17.635V17.635C78.996 17.832 77.487 18.139 75.529 18.556 73.571 18.973 72.152 19.267 71.272 19.437V19.437L70.899 19.146C70.835 18.945 70.797 18.815 70.786 18.756ZM86.057 17.125L85.585 16.83 85.814 11.782C85.877 9.93 86.094 6.402 86.465 1.197V1.197L86.506 0.289C86.514 0.12 86.548 0.024 86.61 0V0L94.314 0.349C94.388 0.352 94.524 0.642 94.72 1.217 94.923 1.793 95.166 2.536 95.449 3.446 95.739 4.349 95.943 4.972 96.063 5.315V5.315L97.442 9.475 97.639 5.133C97.656 4.763 97.693 4.08 97.752 3.084 97.817 2.089 97.859 1.312 97.878 0.753V0.753C97.887 0.544 98.488 0.467 99.679 0.521V0.521C100.056 0.538 100.567 0.568 101.213 0.611 101.865 0.66 102.265 0.688 102.413 0.695V0.695L103.261 0.734C103.383 0.739 103.442 0.762 103.44 0.802V0.802C103.387 2.878 103.273 5.847 103.098 9.711V9.711L102.746 17.476C102.69 17.669 102.447 17.756 102.016 17.736V17.736L101.733 17.723C101.343 17.706 100.771 17.686 100.016 17.666 99.261 17.645 98.692 17.626 98.309 17.609V17.609L95.017 17.46C94.911 17.421 94.716 16.944 94.434 16.027V16.027C94.122 15.035 93.661 13.597 93.051 11.715 92.442 9.832 92.101 8.781 92.03 8.562V8.562C92.01 9 91.977 9.656 91.931 10.531 91.885 11.406 91.852 12.062 91.832 12.499V12.499C91.817 12.829 91.801 13.321 91.785 13.974 91.769 14.635 91.753 15.126 91.739 15.45V15.45L91.675 16.863C91.659 17.207 91.503 17.371 91.207 17.358V17.358ZM103.44 0.823L103.441 0.782ZM103.533 17.738V17.738C104.515 16.261 105.549 14.777 106.636 13.285 107.724 11.787 109.049 10.006 110.611 7.941 112.179 5.878 113.255 4.45 113.839 3.657V3.657C113.975 3.546 114.061 3.479 114.098 3.456V3.456L115.881 4.05C116.297 4.188 116.916 4.387 117.738 4.647 118.554 4.905 119.174 5.104 119.595 5.245V5.245L121.379 5.839C121.481 5.873 121.571 5.903 121.648 5.928 121.716 5.958 121.796 5.995 121.887 6.04 121.985 6.087 122.058 6.136 122.105 6.187 122.16 6.234 122.197 6.293 122.217 6.363 122.242 6.435 122.242 6.51 122.217 6.587V6.587L121.944 23.745C121.898 23.885 121.814 23.964 121.695 23.981 121.567 24.002 121.363 23.966 121.081 23.873V23.873L120.103 23.547C119.822 23.453 119.399 23.316 118.834 23.135 118.276 22.956 117.856 22.819 117.575 22.726V22.726C117.485 22.696 117.312 22.641 117.054 22.563 116.788 22.488 116.568 22.422 116.395 22.365 116.219 22.299 116.025 22.22 115.814 22.128 115.603 22.037 115.443 21.941 115.334 21.841 115.219 21.738 115.163 21.631 115.165 21.518V21.518L115.398 20.818C115.445 20.443 115.429 20.075 115.35 19.715 115.269 19.361 115.129 19.151 114.931 19.085V19.085L111.277 17.868 109.974 19.927C109.839 20.074 109.414 20.028 108.698 19.79V19.79L107.854 19.508C107.548 19.406 107.091 19.265 106.483 19.084 105.874 18.909 105.416 18.77 105.109 18.668V18.668L104.811 18.569C104.696 18.531 104.516 18.474 104.271 18.4 104.026 18.325 103.837 18.266 103.702 18.221V18.221C103.664 18.144 103.607 17.983 103.533 17.738ZM115.128 10.34L113.057 13.741 113.185 14.349 113.885 14.582C114.454 14.772 114.984 14.909 115.474 14.994 115.97 15.081 116.243 15.051 116.292 14.904V14.904L116.959 8.33C116.831 8.287 116.579 8.469 116.202 8.876 115.822 9.29 115.464 9.778 115.128 10.34ZM123.522 23.023V23.023L131.428 10.192 139.838 14.983C140.349 15.297 140.805 15.622 141.208 15.957 141.617 16.296 141.995 16.691 142.342 17.143 142.686 17.6 142.933 18.065 143.085 18.538 143.236 19.012 143.274 19.541 143.198 20.128 143.116 20.71 142.891 21.3 142.523 21.897V21.897C142.035 22.688 141.465 23.223 140.811 23.501 140.157 23.778 139.364 23.896 138.433 23.852V23.852C139.11 24.578 139.489 25.357 139.569 26.19 139.653 27.018 139.431 27.859 138.905 28.714V28.714C138.512 29.35 138.04 29.847 137.488 30.203 136.936 30.56 136.369 30.78 135.787 30.865 135.214 30.947 134.603 30.935 133.956 30.829 133.313 30.717 132.712 30.549 132.154 30.324 131.596 30.099 131.054 29.824 130.526 29.499V29.499C130.222 29.311 129.766 29.023 129.159 28.633 128.553 28.244 128.094 27.953 127.785 27.762V27.762C126.018 26.674 124.383 25.698 122.88 24.835V24.835C122.873 24.372 123.087 23.768 123.522 23.023ZM134.939 16.749V16.749C134.762 17.035 134.509 17.465 134.18 18.038 133.853 18.62 133.601 19.055 133.425 19.341V19.341C133.35 19.462 133.382 19.577 133.521 19.686V19.686C133.62 19.731 133.787 19.806 134.023 19.912 134.258 20.017 134.445 20.101 134.582 20.161 134.722 20.216 134.905 20.266 135.131 20.31 135.361 20.348 135.556 20.346 135.717 20.303 135.88 20.269 136.059 20.177 136.254 20.028 136.455 19.883 136.635 19.681 136.794 19.423V19.423C137.391 18.453 137.021 17.557 135.685 16.733V16.733C135.387 16.613 135.204 16.563 135.135 16.584V16.584C135.061 16.602 134.996 16.657 134.939 16.749ZM130.848 23.773L130.636 24.117C130.346 24.588 130.227 24.839 130.279 24.871V24.871L130.58 25.056C130.827 25.208 131.045 25.335 131.236 25.437 131.43 25.533 131.65 25.613 131.895 25.677 132.146 25.745 132.37 25.76 132.567 25.723 132.761 25.692 132.967 25.601 133.186 25.451 133.396 25.303 133.587 25.089 133.76 24.808V24.808C133.859 24.647 133.935 24.492 133.988 24.342 134.035 24.189 134.054 24.043 134.045 23.903 134.033 23.769 134.015 23.643 133.992 23.526 133.966 23.415 133.907 23.299 133.814 23.179 133.716 23.055 133.636 22.954 133.574 22.876 133.511 22.798 133.409 22.7 133.268 22.581 133.118 22.465 133.011 22.383 132.945 22.335 132.88 22.287 132.765 22.204 132.6 22.086 132.431 21.975 132.324 21.904 132.278 21.876V21.876L132.056 22.238C132.007 22.303 131.828 22.517 131.517 22.88 131.216 23.24 130.993 23.538 130.848 23.773ZM148.355 23.58V23.58C149.209 22.709 149.777 22.312 150.059 22.391V22.391C150.102 22.452 150.172 22.53 150.268 22.624V22.624L150.521 22.872C150.689 23.037 150.966 23.299 151.351 23.657 151.74 24.02 152.034 24.298 152.231 24.491V24.491C152.987 25.232 153.567 25.862 153.973 26.382 154.383 26.897 154.535 27.268 154.427 27.493V27.493L146.247 35.652 146.421 35.822C146.868 36.222 147.176 36.505 147.344 36.67 147.513 36.845 147.816 37.166 148.254 37.633 148.688 38.096 149.116 38.534 149.54 38.95V38.95C149.886 39.289 150.125 39.561 150.256 39.764 150.387 39.968 150.391 40.132 150.268 40.257V40.257L147.261 43.325C147 43.447 145.717 42.379 143.412 40.119V40.119L137.875 34.693C137.929 34.378 138.156 34.016 138.557 33.607V33.607L140.786 31.333C141.437 30.669 142.408 29.687 143.701 28.387 144.993 27.097 145.967 26.118 146.623 25.449V25.449C146.741 25.328 146.998 25.047 147.394 24.605 147.789 24.172 148.11 23.83 148.355 23.58ZM148.424 44.573V44.573L148.776 44.335C149.831 43.623 151.403 42.578 153.49 41.202 155.575 39.835 157.146 38.796 158.202 38.083V38.083L162.047 35.488 169.341 46.296 166.292 48.354C166.275 48.365 166.23 48.395 166.158 48.444 166.079 48.497 166.029 48.531 166.007 48.546 165.984 48.561 165.936 48.586 165.861 48.62 165.791 48.659 165.74 48.681 165.71 48.685 165.671 48.687 165.62 48.689 165.556 48.691 165.493 48.694 165.439 48.681 165.396 48.653 165.351 48.635 165.298 48.598 165.236 48.542 165.183 48.488 165.132 48.425 165.083 48.352V48.352L164.908 48.092C163.826 46.489 162.866 45.012 162.026 43.66V43.66C161.918 43.717 161.751 43.801 161.526 43.912 161.3 44.024 161.101 44.126 160.928 44.218 160.76 44.307 160.601 44.402 160.45 44.504V44.504L163.435 48.928C163.56 49.112 163.62 49.25 163.617 49.342 163.608 49.437 163.548 49.522 163.436 49.598V49.598C163.403 49.62 163.351 49.652 163.28 49.691 163.209 49.731 163.157 49.762 163.124 49.785V49.785C162.828 49.984 162.395 50.289 161.825 50.698 161.259 51.112 160.828 51.419 160.532 51.619V51.619C160.389 51.683 160.291 51.676 160.238 51.598V51.598C160.212 51.559 160.205 51.519 160.218 51.478V51.478C158.798 49.591 157.769 48.175 157.132 47.231V47.231L156.968 46.988 155.636 47.887C156.009 48.44 156.573 49.222 157.329 50.232 158.074 51.241 158.625 52.008 158.979 52.533V52.533C159.254 52.941 159.326 53.234 159.194 53.412V53.412L158.49 53.887C158.194 54.087 157.76 54.388 157.186 54.792 156.613 55.195 156.176 55.498 155.874 55.702V55.702C155.567 55.909 155.33 55.89 155.164 55.644V55.644C154.946 55.32 154.615 54.824 154.172 54.156 153.725 53.481 153.385 52.971 153.151 52.625V52.625C152.548 51.731 151.664 50.47 150.5 48.842 149.336 47.213 148.5 46.029 147.993 45.29V45.29L148.111 44.832C148.269 44.693 148.374 44.606 148.424 44.573ZM162.076 72.774V72.774C161.858 72.678 161.642 72.39 161.427 71.91 161.205 71.432 160.977 70.827 160.744 70.093 160.51 69.36 160.383 68.968 160.363 68.918V68.918C160.181 68.447 160.054 68.102 159.984 67.884V67.884L159.582 66.847C159.571 66.671 159.747 66.454 160.11 66.198 160.477 65.932 161.024 65.601 161.752 65.203 162.473 64.807 162.857 64.597 162.905 64.571V64.571C163.578 64.274 163.986 63.985 164.13 63.705 164.275 63.425 164.247 63.028 164.047 62.513V62.513L163.872 62.06 158.774 64.038C158.685 64.051 158.586 64.002 158.479 63.892 158.371 63.782 158.263 63.607 158.156 63.367 158.042 63.13 157.944 62.915 157.862 62.722 157.789 62.534 157.695 62.281 157.579 61.965 157.463 61.648 157.392 61.455 157.365 61.386V61.386L156.78 59.879C156.451 59.03 156.196 58.392 156.016 57.964V57.964C156.017 57.855 156.026 57.739 156.044 57.617V57.617L171.62 51.573C171.815 51.498 172.021 51.739 172.238 52.298V52.298L175.77 61.401C176.346 62.999 176.439 64.347 176.048 65.445 175.658 66.544 174.815 67.344 173.521 67.846V67.846C171.838 68.499 170.274 68.13 168.831 66.739V66.739C168.859 67.089 168.833 67.425 168.755 67.744 168.683 68.061 168.578 68.34 168.44 68.582 168.305 68.829 168.123 69.07 167.896 69.302 167.668 69.535 167.445 69.734 167.227 69.898 167.009 70.062 166.743 70.234 166.43 70.413 166.116 70.593 165.842 70.743 165.606 70.863 165.369 70.977 165.09 71.114 164.769 71.275 164.442 71.438 164.184 71.566 163.997 71.661V71.661L163.074 72.019C162.977 72.086 162.845 72.212 162.679 72.4 162.52 72.585 162.399 72.711 162.317 72.779V72.779C162.178 72.832 162.098 72.831 162.076 72.774ZM169.99 59.611V59.611C169.569 59.774 169.259 59.898 169.061 59.982 168.862 60.066 168.613 60.206 168.313 60.402 168.013 60.598 167.821 60.792 167.736 60.984V60.984C167.851 61.279 167.991 61.546 168.156 61.786 168.319 62.019 168.517 62.231 168.75 62.423 168.983 62.614 169.265 62.725 169.595 62.756 169.921 62.796 170.276 62.741 170.659 62.593V62.593C170.879 62.507 171.056 62.395 171.19 62.257 171.324 62.118 171.409 61.955 171.445 61.767 171.489 61.584 171.512 61.409 171.512 61.243 171.521 61.08 171.498 60.89 171.443 60.673 171.381 60.458 171.335 60.292 171.304 60.174 171.264 60.052 171.211 59.907 171.145 59.737V59.737L171.05 59.492C170.958 59.405 170.834 59.373 170.677 59.398 170.514 59.425 170.285 59.496 169.99 59.611Z" fill="#ea9937" data-fill-palette-color="primary"></path><path d="M1.537 91.404C1.537 87.769 4.484 84.823 8.119 84.823 11.753 84.823 14.7 87.769 14.7 91.404 14.7 95.039 11.753 97.985 8.119 97.985 4.484 97.985 1.537 95.039 1.537 91.404ZM165.12 91.404C165.12 87.769 168.067 84.823 171.701 84.823 175.336 84.823 178.283 87.769 178.283 91.404 178.283 95.039 175.336 97.985 171.701 97.985 168.067 97.985 165.12 95.039 165.12 91.404Z" fill="#ea9937" data-fill-palette-color="primary"></path></g></svg></g></svg></g></svg></g><g></g></svg></g></svg></g></svg></g><defs></defs></svg><rect width="320" height="360" fill="none" stroke="none" visibility="hidden"></rect></g></svg></g></svg>