<svg id="visual" viewBox="0 0 900 600" width="900" height="600" xmlns="http://www.w3.org/2000/svg" xmlns:xlink="http://www.w3.org/1999/xlink" version="1.1"><g stroke-width="1" stroke-linejoin="bevel"><path d="M438 321L669 326L506 173Z" fill="#277297" stroke="#277297"></path><path d="M669 326L675 146L506 173Z" fill="#0c2435" stroke="#0c2435"></path><path d="M675 146L463 0L506 173Z" fill="#246688" stroke="#246688"></path><path d="M506 173L257 163L438 321Z" fill="#277297" stroke="#277297"></path><path d="M257 163L262 410L438 321Z" fill="#081a28" stroke="#081a28"></path><path d="M438 321L451 600L669 326Z" fill="#297ea6" stroke="#297ea6"></path><path d="M463 0L257 163L506 173Z" fill="#246688" stroke="#246688"></path><path d="M262 410L451 600L438 321Z" fill="#0c2435" stroke="#0c2435"></path><path d="M451 600L664 600L669 326Z" fill="#297ea6" stroke="#297ea6"></path><path d="M900 254L748 0L675 146Z" fill="#15384f" stroke="#15384f"></path><path d="M900 254L675 146L669 326Z" fill="#0c2435" stroke="#0c2435"></path><path d="M675 146L748 0L463 0Z" fill="#246688" stroke="#246688"></path><path d="M900 454L900 254L669 326Z" fill="#277297" stroke="#277297"></path><path d="M664 600L900 454L669 326Z" fill="#205a7a" stroke="#205a7a"></path><path d="M463 0L245 0L257 163Z" fill="#081a28" stroke="#081a28"></path><path d="M257 163L0 193L262 410Z" fill="#0c2435" stroke="#0c2435"></path><path d="M262 410L258 600L451 600Z" fill="#19435d" stroke="#19435d"></path><path d="M0 600L258 600L262 410Z" fill="#15384f" stroke="#15384f"></path><path d="M900 254L900 0L748 0Z" fill="#112e42" stroke="#112e42"></path><path d="M664 600L900 600L900 454Z" fill="#277297" stroke="#277297"></path><path d="M0 0L0 193L257 163Z" fill="#00101c" stroke="#00101c"></path><path d="M0 193L0 394L262 410Z" fill="#00101c" stroke="#00101c"></path><path d="M245 0L0 0L257 163Z" fill="#246688" stroke="#246688"></path><path d="M0 394L0 600L262 410Z" fill="#112e42" stroke="#112e42"></path></g></svg>